<?xml version="1.0" encoding="UTF-8" standalone="no"?>
<svg
   xmlns:dc="http://purl.org/dc/elements/1.1/"
   xmlns:cc="http://creativecommons.org/ns#"
   xmlns:rdf="http://www.w3.org/1999/02/22-rdf-syntax-ns#"
   xmlns:svg="http://www.w3.org/2000/svg"
   xmlns="http://www.w3.org/2000/svg"
   xmlns:xlink="http://www.w3.org/1999/xlink"
   height="30.0009"
   width="120.0002"
   id="svg15"
   viewBox="0 0 120.0002 30.0009"
   version="1.1">
  <metadata
     id="metadata19">
    <rdf:RDF>
      <cc:Work
         rdf:about="">
        <dc:format>image/svg+xml</dc:format>
        <dc:type
           rdf:resource="http://purl.org/dc/dcmitype/StillImage" />
      </cc:Work>
    </rdf:RDF>
  </metadata>
  <title
     id="title2">Formula 1 logo</title>
  <defs
     id="defs5">
    <path
       d="m 101.09,30 h 0.625 v -2.8931 h 0.0106 L 102.76503,30 h 0.54062 l 1.0394,-2.8931 h 0.0106 V 30 h 0.625 v -3.7488 h -0.91375 l -1.0081,2.935 h -0.0106 l -1.0338,-2.935 h -0.92438 V 30 Z m -3.4594,-3.1819 h 1.1862 V 30 h 0.65625 v -3.1819 h 1.1919 v -0.56688 h -3.0344 V 26.8181 Z M 90.0031,30 l 30,-30 h -18.056 l -29.999,30 h 18.056 z M 85.7019,13.065 h -36.317 c -11.068,0 -13.005,0.58688 -17.746,5.3275 -4.4338,4.4338 -11.636,11.608 -11.636,11.608 h 15.732 l 3.7531,-3.7531 c 2.4675,-2.4675 3.74,-2.7231 8.9212,-2.7231 h 26.834 l 10.458,-10.459 z m -54.547,3.1881 c -3.2744,3.0894 -10.399,10.01 -14.239,13.747 H 0.0029 c 0,0 13.552,-13.513 21.085,-20.928 7.7606,-7.3875 11.629,-9.0725 25.864,-9.0725 h 51.816 l -11.219,11.219 h -39.544 c -10.002,0 -12.249,0.69312 -16.849,5.0344 z"
       id="a" />
  </defs>
  <g
     transform="translate(-0.0029,4e-4)"
     style="fill:none;fill-rule:evenodd"
     id="g13">
    <mask
       id="mask9"
       fill="white">
      <use
         height="100%"
         width="100%"
         y="0"
         x="0"
         id="use7"
         xlink:href="#a" />
    </mask>
    <use
       height="100%"
       width="100%"
       y="0"
       x="0"
       style="fill:#ffffff"
       id="use11"
       xlink:href="#a" />
  </g>
</svg>
